<?xml version="1.0" encoding="UTF-8" standalone="no"?>
<!DOCTYPE svg PUBLIC "-//W3C//DTD SVG 20010904//EN" "http://www.w3.org/TR/2001/REC-SVG-20010904/DTD/svg10.dtd">
<svg version="1.0" xmlns="http://www.w3.org/2000/svg" width="256.000000pt" height="256.000000pt" viewBox="0 0 256.000000 256.000000" preserveAspectRatio="xMidYMid meet">
<metadata>
Created by potrace 1.10, written by Peter Selinger 2001-2011
</metadata>
<g transform="translate(0.000000,256.000000) scale(0.050000,-0.050000)" fill="#000000" stroke="none">
<path d="M2260 5087 c-829 -132 -1471 -549 -1873 -1217 -92 -154 -247 -509 -247 -567 0 -28 59 71 59 101 1 18 17 49 36 68 19 19 34 38 32 41 -9 17 20 87 37 87 10 0 13 9 6 20 -7 11 -3 20 9 20 11 0 34 32 50 71 19 46 39 67 54 57 13 -8 18 -6 10 6 -28 47 368 501 564 646 36 28 77 59 90 71 101 89 420 255 627 326 244 83 826 194 826 158 0 -9 9 -12 21 -5 57 36 796 -142 892 -215 13 -9 97 -52 186 -95 333 -162 599 -388 856 -729 207 -275 266 -407 435 -977 36 -121 70 -195 112 -240 l61 -64 -11 194 c-75 1328 -1497 2454 -2832 2243z"/>
<path d="M2239 4789 c-1377 -216 -2273 -1665 -1832 -2961 102 -299 507 -946 435 -694 -17 58 -25 76 -90 201 -19 36 -29 74 -23 84 7 10 -1 26 -16 35 -39 22 -148 270 -137 311 2 8 -6 15 -18 15 -12 0 -17 14 -11 30 7 17 2 30 -9 30 -12 0 -17 11 -13 25 5 14 -3 58 -17 99 -14 41 -25 90 -25 110 1 20 -8 81 -19 136 -43 208 -3 659 78 890 22 61 43 124 47 140 4 17 10 32 12 35 2 3 5 12 7 20 1 8 22 43 47 78 25 35 45 75 45 89 0 44 152 282 264 414 224 262 530 485 854 622 165 70 179 69 137 -12 -200 -379 -214 -432 -215 -789 0 -235 5 -274 33 -285 18 -7 28 -17 23 -23 -11 -11 46 -81 167 -209 41 -42 69 -81 64 -87 -6 -5 9 -15 31 -23 23 -7 42 -22 42 -32 0 -11 27 -29 60 -41 33 -12 60 -29 60 -39 0 -10 18 -18 40 -18 22 0 40 -8 40 -17 0 -18 88 -63 123 -63 14 0 13 11 -3 30 -13 16 -33 24 -43 18 -10 -6 -16 -4 -14 6 2 9 -82 102 -187 206 -318 318 -391 571 -274 951 88 287 422 689 573 689 10 0 35 13 56 29 51 39 -44 39 -292 0z"/>
<path d="M2780 4742 c-466 -151 -764 -528 -768 -972 -3 -297 197 -541 788 -960 171 -121 313 -227 317 -235 3 -8 18 -15 32 -15 15 0 41 -22 59 -49 18 -28 43 -45 57 -40 14 5 52 -14 85 -43 l60 -51 -70 44 c-62 39 -60 35 20 -38 50 -45 99 -81 110 -82 11 0 -2 17 -30 39 -27 22 -40 39 -28 40 11 0 42 -22 67 -49 26 -28 54 -45 64 -39 9 6 -26 47 -78 93 -52 45 -94 95 -92 110 2 17 -9 23 -26 16 -17 -6 -43 3 -60 19 -16 17 -23 30 -15 30 8 0 -5 17 -29 37 -24 21 -43 47 -43 59 0 12 -17 18 -39 14 -26 -5 -35 2 -28 20 5 15 -10 38 -35 51 -25 14 -69 46 -97 72 -28 26 -57 47 -65 47 -8 0 -44 29 -80 65 -36 35 -77 62 -89 59 -13 -3 -30 13 -37 36 -7 22 -21 36 -31 30 -10 -7 -35 6 -56 27 -21 21 -55 48 -76 60 -30 18 -32 26 -10 40 20 13 13 21 -26 31 -32 8 -47 22 -39 36 10 15 3 18 -19 10 -24 -9 -33 -2 -33 28 0 22 -9 35 -20 28 -11 -7 -20 2 -20 19 0 17 -14 31 -31 31 -16 0 -36 15 -43 34 -21 55 -71 105 -92 92 -11 -6 -15 1 -10 16 5 15 -3 40 -17 54 -60 60 -25 509 45 579 15 15 28 41 28 56 0 16 9 29 20 29 11 0 20 10 20 23 0 35 241 258 311 288 l62 27 2 -139 c3 -133 40 -267 47 -169 1 22 1 58 0 80 -3 38 -2 38 19 3 13 -20 19 -58 14 -85 -5 -27 -2 -54 8 -60 9 -6 17 -32 17 -59 0 -30 12 -49 30 -49 17 0 30 -7 30 -16 0 -9 27 -47 60 -84 33 -37 60 -75 60 -84 0 -9 14 -16 30 -16 17 0 30 -10 30 -22 0 -12 13 -17 28 -11 16 6 33 -2 39 -17 6 -16 45 -46 87 -69 42 -22 121 -73 176 -114 56 -41 -17 38 -164 181 -369 356 -464 597 -328 838 71 126 66 129 -98 76z"/>
<path d="M3460 3636 c17 -17 134 -119 260 -228 127 -108 264 -228 305 -265 41 -38 90 -80 110 -94 19 -14 98 -97 174 -186 77 -89 143 -157 148 -153 5 5 -3 23 -17 40 -14 17 -16 30 -5 30 26 0 49 -57 34 -82 -6 -10 8 -45 31 -78 203 -285 249 -672 116 -987 -152 -361 -632 -880 -1002 -1083 -75 -41 -132 -79 -126 -84 5 -5 64 23 132 62 67 40 131 72 141 72 10 0 19 9 19 20 0 34 36 22 47 -15 7 -25 9 -22 7 8 -4 41 280 320 302 297 10 -9 -5 -25 -161 -166 -64 -57 -107 -104 -97 -104 10 0 69 46 131 103 101 92 175 124 112 48 -13 -16 -19 -39 -12 -50 8 -12 1 -16 -14 -10 -15 6 -54 -15 -86 -46 -33 -30 -93 -76 -134 -102 -41 -25 -82 -57 -90 -70 -23 -35 -225 -138 -225 -114 0 11 -14 21 -31 21 -35 0 -94 -50 -85 -72 8 -18 -281 -108 -344 -107 -47 0 -48 1 -10 22 22 12 63 36 90 54 28 18 55 32 62 32 39 2 215 101 198 111 -12 7 11 30 49 51 39 21 71 45 71 54 0 26 -54 17 -79 -14 -13 -16 -36 -24 -50 -18 -15 5 -33 0 -40 -12 -7 -11 -24 -21 -37 -21 -12 0 -3 14 22 31 24 17 52 27 61 21 10 -6 32 4 49 23 29 32 34 44 34 77 0 7 14 2 30 -12 17 -14 37 -20 44 -13 7 7 4 13 -6 13 -11 0 -21 20 -23 45 -2 31 2 36 13 18 12 -19 21 -21 31 -5 7 12 7 32 -1 45 -8 13 -5 18 7 10 11 -7 32 1 46 18 20 25 29 26 44 5 14 -19 16 -17 8 8 -16 49 87 228 110 193 12 -17 14 -7 5 28 -7 30 -5 55 5 55 41 0 97 252 97 441 0 181 -4 200 -74 340 -46 93 -66 153 -53 161 15 9 14 17 -1 27 -12 7 -22 2 -22 -12 0 -15 -42 21 -93 80 -61 70 -98 98 -107 82 -11 -17 -19 -17 -29 -1 -7 12 -3 22 9 22 12 0 17 9 10 20 -22 35 16 21 68 -25 l50 -45 -49 63 c-44 55 -53 59 -82 33 -25 -22 -37 -23 -48 -4 -11 17 -7 19 13 7 24 -14 24 -12 0 18 -20 24 -33 28 -43 12 -9 -15 -50 5 -121 59 -60 45 -119 82 -133 82 -14 0 -25 9 -25 20 0 11 -17 20 -38 20 -21 0 -43 14 -50 31 -6 17 -20 26 -30 20 -10 -6 -32 2 -49 19 -17 16 -39 30 -49 30 -10 0 -62 24 -115 54 -158 88 -85 20 206 -190 851 -616 933 -1092 297 -1735 -298 -301 -459 -359 -952 -343 -486 16 -890 157 -1269 443 -151 113 -220 145 -146 67 14 -14 38 -51 53 -81 16 -30 33 -51 39 -45 13 13 59 -76 49 -95 -15 -27 -46 -16 -46 17 0 22 -12 29 -38 23 -26 -7 -42 2 -49 28 -5 21 -22 36 -36 33 -15 -3 -25 5 -22 19 3 13 -18 30 -45 37 -28 7 -50 25 -50 40 0 15 -14 28 -31 28 -16 0 -35 13 -41 29 -7 16 -29 35 -50 42 -21 6 -38 21 -38 31 0 11 -31 52 -69 91 -76 78 -271 353 -271 382 0 10 -18 35 -40 55 -22 20 -40 52 -40 72 0 19 -13 48 -29 64 -16 17 -45 67 -63 113 -18 45 -37 78 -43 73 -35 -36 236 -591 382 -782 1295 -1689 3953 -1184 4504 857 49 180 89 553 60 553 -71 0 -161 -201 -280 -619 -23 -83 -25 -72 -24 171 1 271 0 278 -108 492 -85 168 -125 222 -150 200 -8 -8 -10 6 -4 30 8 33 3 40 -21 31 -23 -9 -28 -3 -18 23 8 20 6 29 -6 22 -11 -7 -20 2 -20 19 0 17 -10 31 -22 31 -12 0 -17 13 -11 29 7 18 1 25 -15 19 -14 -5 -51 23 -82 64 -72 94 -199 210 -267 244 -44 21 -47 21 -21 0 128 -106 161 -139 151 -150 -10 -9 -239 177 -313 254 -5 5 -50 43 -100 83 -49 40 -113 94 -141 120 -62 57 -221 176 -179 133z m1020 -2456 c-13 -24 -50 -72 -82 -105 -32 -34 -58 -74 -58 -89 0 -16 -9 -23 -20 -16 -11 7 -20 5 -20 -4 -1 -47 -135 -168 -148 -134 -9 23 4 53 39 89 31 33 43 58 29 62 -14 5 -4 24 23 48 36 31 40 31 19 4 -15 -20 -23 -41 -17 -47 11 -11 191 172 222 226 27 46 39 14 13 -34z m-1624 -1011 c-6 -5 -28 -14 -49 -18 -22 -4 -72 -26 -113 -49 -41 -23 -74 -35 -74 -27 0 8 -8 3 -17 -11 -18 -29 -123 -13 -123 18 0 10 -14 18 -31 18 -48 0 -112 40 -98 61 6 10 125 19 264 19 138 0 247 -5 241 -11z"/>
<path d="M3986 1480 c0 -71 4 -101 8 -65 5 36 5 94 0 130 -4 36 -8 7 -8 -65z"/>
</g>
</svg>